<?xml version="1.0" encoding="UTF-8" standalone="no"?>
<svg width="173px" height="27px" viewBox="0 0 173 27" version="1.1" xmlns="http://www.w3.org/2000/svg" xmlns:xlink="http://www.w3.org/1999/xlink" xmlns:sketch="http://www.bohemiancoding.com/sketch/ns">
    <!-- Generator: Sketch 3.4.4 (17249) - http://www.bohemiancoding.com/sketch -->
    <title>TA-logo</title>
    <desc>Created with Sketch.</desc>
    <defs></defs>
    <g id="Page-1" stroke="none" stroke-width="1" fill="none" fill-rule="evenodd" sketch:type="MSPage">
        <g id="TA-logo" sketch:type="MSArtboardGroup">
            <g id="TripAdvisor" sketch:type="MSLayerGroup">
                <path d="M123.734478,3.08571429 C123.734478,3.98442857 124.484669,4.71728571 125.411492,4.71728571 C126.338315,4.71728571 127.09049,3.98442857 127.09049,3.08571429 C127.09049,2.18892857 126.338315,1.45607143 125.411492,1.45607143 C124.484669,1.45607143 123.734478,2.18892857 123.734478,3.08571429 L123.734478,3.08571429 Z" id="Shape" fill="#589442" sketch:type="MSShapeGroup"></path>
                <path d="M44.0296705,2.97385714 L41.4873569,3.82242857 L41.4873569,7.047 L38.6671948,7.047 L38.6671948,9.21085714 L41.405987,9.21085714 L41.405987,16.1556429 C41.405987,19.4612143 42.5650121,20.8073571 45.4050205,20.8073571 C46.1274266,20.8073571 46.8160939,20.7225 47.5067459,20.5392857 L47.6178852,20.5103571 L47.5861311,18.2693571 L47.3896526,18.3368571 C46.831971,18.5297143 46.3973365,18.6203571 46.0559798,18.6203571 C44.7242917,18.6203571 44.2261491,17.8875 44.2261491,15.9184286 L44.2261491,9.21085714 L47.4829303,9.21085714 L47.4829303,7.04892857 L44.2261491,7.04892857 L44.2261491,2.90635714 L44.0296705,2.97385714 L44.0296705,2.97385714 Z" id="Shape" fill="#000000" sketch:type="MSShapeGroup"></path>
                <path d="M52.829529,9.23978571 L52.829529,7.04892857 L50.2495073,7.04892857 L50.2495073,20.574 L53.0736387,20.574 L53.0736387,13.7835 C53.0736387,10.9369286 54.3021259,9.369 56.5328523,9.369 C56.8543627,9.369 57.1679346,9.41335714 57.548984,9.52135714 L57.7335547,9.57342857 L57.8228632,6.90235714 L56.6122376,6.81171429 C54.9769008,6.81171429 53.6551359,7.66992857 52.829529,9.23978571 L52.829529,9.23978571 Z" id="Shape" fill="#000000" sketch:type="MSShapeGroup"></path>
                <path d="M72.9675902,6.73071429 C71.032574,6.73071429 69.4031911,7.62557143 68.3175974,9.24557143 L68.3175974,7.04892857 L65.7395604,7.04892857 L65.7395604,26.0839286 L68.5617071,26.0839286 L68.5617071,18.7032857 C69.581808,20.0455714 71.0444818,20.7842143 72.8624047,20.7842143 C76.4287885,20.7842143 78.7349309,17.9415 78.7349309,13.5462857 C78.7329463,9.46928571 76.4148961,6.73071429 72.9675902,6.73071429 L72.9675902,6.73071429 Z M72.1836606,18.5682857 C69.9509495,18.5682857 68.5617071,16.7149286 68.5617071,13.7333571 C68.5617071,10.8617143 70.0243809,9.00257143 72.2908307,9.00257143 C74.4719413,9.00257143 75.7758446,10.7614286 75.7758446,13.7082857 C75.7758446,16.7052857 74.4004946,18.5682857 72.1836606,18.5682857 L72.1836606,18.5682857 Z" id="Shape" fill="#000000" sketch:type="MSShapeGroup"></path>
                <path d="M86.9771078,6.73071429 C85.2504779,6.73071429 83.7441422,7.047 82.3548998,7.695 L82.2695606,7.7355 L82.3013147,10.0767857 L82.5196242,9.95721429 C83.847343,9.234 85.0996459,8.8695 86.2427939,8.8695 C88.2829956,8.8695 89.4559132,10.0073571 89.4559132,11.9918571 L89.4559132,12.1095 L87.844392,12.1095 C83.200353,12.1095 80.6421623,13.743 80.6421623,16.7110714 C80.6421623,19.0928571 82.4878701,20.7572143 85.1274307,20.7572143 C87.0723701,20.7572143 88.5747365,20.0166429 89.6444532,18.6184286 L89.6444532,20.574 L92.19669,20.574 L92.19669,12.3872143 C92.2006593,8.63421429 90.4442599,6.73071429 86.9771078,6.73071429 L86.9771078,6.73071429 Z M89.4578978,14.8654286 C89.4578978,17.1951429 88.0130857,18.6994286 85.7823593,18.6994286 C84.4169324,18.6994286 83.4662937,17.8257857 83.4662937,16.5760714 C83.4662937,14.9348571 85.0778149,14.0322857 88.0091164,14.0322857 L89.4598824,14.0322857 C89.4578978,14.2463571 89.4578978,14.8654286 89.4578978,14.8654286 L89.4578978,14.8654286 Z" id="Shape" fill="#589442" sketch:type="MSShapeGroup"></path>
                <path d="M104.187837,0.595928571 L104.187837,8.88492857 C103.149874,7.47707143 101.697124,6.73071429 99.8335541,6.73071429 C96.3902175,6.73071429 94.0701827,9.4905 94.0701827,13.5983571 C94.0701827,17.8277143 96.4180023,20.7822857 99.7819536,20.7822857 C101.774524,20.7822857 103.322537,19.9279286 104.406146,18.2577857 L104.406146,20.574 L107.009984,20.574 L107.009984,0.595928571 L104.187837,0.595928571 L104.187837,0.595928571 Z M100.514283,18.5142857 C98.3609571,18.5142857 97.0272844,16.6937143 97.0272844,13.7584286 C97.0272844,10.8212143 98.3768342,8.9235 100.458713,8.9235 C102.794625,8.9235 104.185852,10.7305714 104.185852,13.7584286 C104.187837,16.6474286 102.745009,18.5142857 100.514283,18.5142857 L100.514283,18.5142857 Z" id="Shape" fill="#589442" sketch:type="MSShapeGroup"></path>
                <path d="M119.620335,7.04892857 L115.617333,14.8538571 L111.919963,7.04892857 L108.740583,7.04892857 L115.561763,20.574 L122.569499,7.04892857 L119.620335,7.04892857 L119.620335,7.04892857 Z" id="Shape" fill="#589442" sketch:type="MSShapeGroup"></path>
                <path d="M126.675702,7.04892857 L124.002403,7.04892857 L124.002403,20.574 L126.826534,20.574 L126.826534,7.04892857 L126.675702,7.04892857 L126.675702,7.04892857 Z" id="Shape" fill="#589442" sketch:type="MSShapeGroup"></path>
                <path d="M130.134916,10.5165 C130.134916,12.42 131.480497,13.419 133.963271,14.5992857 C135.529146,15.3475714 136.348799,15.7872857 136.348799,16.8422143 C136.348799,17.9222143 135.340606,18.6222857 133.78267,18.6222857 C132.67723,18.6222857 131.452712,18.3156429 130.244071,17.739 L130.037669,17.6406429 L129.942407,20.0224286 L130.041638,20.0629286 C131.198679,20.5045714 132.421212,20.7321429 133.677484,20.7321429 C137.126775,20.7321429 139.357501,19.1352857 139.357501,16.6609286 C139.357501,14.5954286 137.942458,13.5501429 135.501361,12.4431429 C133.711223,11.6254286 132.959047,11.1490714 132.959047,10.2831429 C132.959047,9.45771429 133.794577,8.92735714 135.086573,8.92735714 C136.251552,8.92735714 137.390731,9.18 138.466401,9.67757143 L138.668834,9.77014286 L138.79585,7.43464286 L138.682726,7.39992857 C137.509809,7.06435714 136.354753,6.89464286 135.249313,6.89464286 C132.18901,6.89078571 130.134916,8.34685714 130.134916,10.5165 L130.134916,10.5165 Z" id="Shape" fill="#589442" sketch:type="MSShapeGroup"></path>
                <path d="M148.161329,6.73071429 C143.918185,6.73071429 141.284579,9.44421429 141.284579,13.8085714 C141.284579,18.1748571 143.918185,20.8864286 148.161329,20.8864286 C152.420349,20.8864286 155.065864,18.1729286 155.065864,13.8085714 C155.063879,9.44421429 152.418364,6.73071429 148.161329,6.73071429 L148.161329,6.73071429 Z M148.189114,18.6473571 C145.845263,18.6473571 144.267481,16.6917857 144.267481,13.7835 C144.267481,10.8597857 145.845263,8.89457143 148.189114,8.89457143 C150.568687,8.89457143 152.108762,10.8135 152.108762,13.7835 C152.106777,16.7380714 150.568687,18.6473571 148.189114,18.6473571 L148.189114,18.6473571 Z" id="Shape" fill="#589442" sketch:type="MSShapeGroup"></path>
                <path d="M160.269569,9.23978571 L160.269569,7.04892857 L157.693516,7.04892857 L157.693516,20.574 L160.513679,20.574 L160.513679,13.7835 C160.513679,10.9369286 161.742166,9.369 163.972892,9.369 C164.294403,9.369 164.607974,9.41335714 164.989024,9.52135714 L165.173595,9.57342857 L165.266872,6.90235714 L164.058231,6.81171429 C162.418925,6.81171429 161.095176,7.66992857 160.269569,9.23978571 L160.269569,9.23978571 Z" id="Shape" fill="#589442" sketch:type="MSShapeGroup"></path>
                <path d="M62.85589,7.04892857 L60.1786214,7.04892857 L60.1786214,20.574 L63.0007681,20.574 L63.0007681,7.04892857 L62.85589,7.04892857 L62.85589,7.04892857 Z" id="Shape" fill="#000000" sketch:type="MSShapeGroup"></path>
                <path d="M59.9067268,3.08571429 C59.9067268,3.98442857 60.6589023,4.71728571 61.5857255,4.71728571 C62.510564,4.71728571 63.2627396,3.98442857 63.2627396,3.08571429 C63.2627396,2.18892857 62.5125487,1.45607143 61.5857255,1.45607143 C60.660887,1.45607143 59.9067268,2.18892857 59.9067268,3.08571429 L59.9067268,3.08571429 Z" id="Shape" fill="#000000" sketch:type="MSShapeGroup"></path>
                <path d="M6.12121404,4.85614286 C9.38791837,4.44921429 18.6521807,4.16571429 16.115821,17.172 L18.9935374,16.9444286 C17.7313114,8.92542857 20.370872,4.83878571 28.6190028,4.44728571 C14.9389342,-2.91214286 7.14925343,4.72885714 6.12121404,4.85614286 L6.12121404,4.85614286 Z" id="Shape" fill="#FFE090" sketch:type="MSShapeGroup"></path>
                <path d="M18.8585824,15.1122857 C20.354995,19.0562143 24.8660636,21.0754286 28.9246361,19.6193571 C32.9832086,18.1594286 35.063103,13.7796429 33.5627212,9.83571429 C32.0623394,5.88985714 27.55524,3.8745 23.4966675,5.32864286 C19.4321411,6.78471429 17.356216,11.1664286 18.8585824,15.1122857 L18.8585824,15.1122857 Z" id="Shape" fill="#FFFFFF" sketch:type="MSShapeGroup"></path>
                <ellipse id="Oval" fill="#FFFFFF" sketch:type="MSShapeGroup" cx="8.83619066" cy="12.4412143" rx="7.8373119" ry="7.61592857"></ellipse>
                <path d="M10.171848,12.3679286 C10.171848,13.1432143 9.52088871,13.7757857 8.72306663,13.7757857 C7.92127529,13.7757857 7.27230062,13.1432143 7.27230062,12.3679286 C7.27230062,11.5907143 7.92127529,10.9600714 8.72306663,10.9600714 C9.52088871,10.9600714 10.171848,11.5887857 10.171848,12.3679286 L10.171848,12.3679286 Z" id="Shape" fill="#BA2334" sketch:type="MSShapeGroup"></path>
                <path d="M27.6366099,12.3679286 C27.6366099,13.1432143 26.9896199,13.7757857 26.1898132,13.7757857 C25.3860372,13.7757857 24.7410318,13.1432143 24.7410318,12.3679286 C24.7410318,11.5907143 25.3860372,10.9600714 26.1898132,10.9600714 C26.9896199,10.9600714 27.6366099,11.5887857 27.6366099,12.3679286 L27.6366099,12.3679286 Z" id="Shape" fill="#579441" sketch:type="MSShapeGroup"></path>
                <path d="M33.2054874,7.42692857 C33.6182909,5.73171429 34.9202095,4.04035714 34.9202095,4.04035714 L29.103253,4.03842857 C25.8425026,1.99028571 21.8752231,0.902571429 17.4832324,0.902571429 C12.9324712,0.902571429 8.81435971,2.01728571 5.57147096,4.077 L0.113732868,4.08085714 C0.113732868,4.08085714 1.40175906,5.751 1.81853179,7.43464286 C0.754769016,8.83864286 0.117702132,10.5685714 0.117702132,12.4412143 C0.117702132,17.1122143 4.02941187,20.9115 8.83817529,20.9115 C11.5829214,20.9115 14.033942,19.6675714 15.6335554,17.7332143 L17.4872017,20.4312857 L19.3606943,17.7081429 C20.2021783,18.7495714 21.2857874,19.5923571 22.5599212,20.1632143 C24.6775236,21.1120714 27.0471742,21.2046429 29.2302694,20.4177857 C33.7413381,18.7958571 36.0534344,13.9127143 34.3903127,9.53485714 C34.0926179,8.76342857 33.687753,8.0595 33.2054874,7.42692857 L33.2054874,7.42692857 Z M25.9298264,4.01335714 C25.0168956,4.04035714 24.0920571,4.20235714 23.1890495,4.52635714 C21.001985,5.31128571 19.2634474,6.87342857 18.288993,8.92928571 C17.8484047,9.85692857 17.6003257,10.8366429 17.5209404,11.8279286 C17.2014147,7.49828571 13.5258762,4.06928571 9.01282291,3.9825 C11.50949,2.94685714 14.3772833,2.38371429 17.4852171,2.38371429 C20.6129972,2.37985714 23.4371285,2.9295 25.9298264,4.01335714 L25.9298264,4.01335714 Z M8.83619066,19.2008571 C4.99791231,19.2008571 1.87807075,16.1691429 1.87807075,12.4412143 C1.87807075,8.71328571 4.99791231,5.67964286 8.83619066,5.67964286 C12.674469,5.67964286 15.7943106,8.71328571 15.7943106,12.4412143 C15.7943106,16.1691429 12.6724844,19.2008571 8.83619066,19.2008571 L8.83619066,19.2008571 Z M28.6209874,18.819 C26.8764959,19.4438571 24.9871262,19.3705714 23.2962197,18.6145714 C21.6092824,17.8566429 20.3252255,16.5105 19.6841894,14.8172143 L19.6841894,14.8172143 C19.039184,13.122 19.1146,11.286 19.8886065,9.64671429 C20.6685669,8.0055 22.05384,6.75771429 23.7983316,6.13285714 C27.3964694,4.84264286 31.4074108,6.63621429 32.733145,10.1346429 C34.0648331,13.6272857 32.2191253,17.523 28.6209874,18.819 L28.6209874,18.819 Z" id="Shape" fill="#000000" sketch:type="MSShapeGroup"></path>
                <path d="M8.72902053,8.18485714 C6.35341599,8.18485714 4.42236902,10.0613571 4.42236902,12.366 C4.42236902,14.6706429 6.35341599,16.5471429 8.72902053,16.5471429 C11.1006558,16.5471429 13.0297181,14.6687143 13.0297181,12.366 C13.0277335,10.0613571 11.0986712,8.18485714 8.72902053,8.18485714 L8.72902053,8.18485714 Z M8.72902053,15.1103571 C7.17108438,15.1103571 5.90091988,13.878 5.90091988,12.366 C5.90091988,10.854 7.17108438,9.62357143 8.72902053,9.62357143 C10.2810028,9.62357143 11.5452134,10.854 11.5452134,12.366 C11.5432288,13.8799286 10.2829874,15.1103571 8.72902053,15.1103571 L8.72902053,15.1103571 Z" id="Shape" fill="#000000" sketch:type="MSShapeGroup"></path>
                <path d="M26.1917978,8.18485714 C23.8181779,8.18485714 21.8871309,10.0613571 21.8871309,12.366 C21.8871309,14.6706429 23.8201625,16.5471429 26.1917978,16.5471429 C28.5634331,16.5471429 30.4924954,14.6687143 30.4924954,12.366 C30.4944801,10.0613571 28.5654177,8.18485714 26.1917978,8.18485714 L26.1917978,8.18485714 Z M26.1917978,15.1103571 C24.6338617,15.1103571 23.3696511,13.878 23.3696511,12.366 C23.3696511,10.854 24.6358463,9.62357143 26.1917978,9.62357143 C27.7457647,9.62357143 29.0119599,10.854 29.0119599,12.366 C29.0119599,13.8799286 27.7457647,15.1103571 26.1917978,15.1103571 L26.1917978,15.1103571 Z" id="Shape" fill="#000000" sketch:type="MSShapeGroup"></path>
                <path d="M172.12973,5.13964286 C172.594134,5.59671429 172.834274,6.1965 172.834274,6.85028571 C172.834274,7.53107143 172.574287,8.1405 172.086068,8.58985714 C171.587925,9.05464286 170.960782,9.30342857 170.307838,9.30342857 C169.631078,9.30342857 169.00195,9.04114286 168.519684,8.55707143 C168.049326,8.0865 167.795293,7.48864286 167.795293,6.85028571 C167.795293,6.19842857 168.065203,5.56778571 168.561361,5.09142857 C169.033704,4.64014286 169.633063,4.39907143 170.309822,4.39907143 C171.012382,4.401 171.647464,4.65557143 172.12973,5.13964286 L172.12973,5.13964286 Z M168.880887,5.40771429 C168.472053,5.80692857 168.259697,6.31414286 168.259697,6.85221429 C168.259697,7.37678571 168.460145,7.85892857 168.847148,8.24271429 C169.240106,8.63807143 169.758095,8.85214286 170.309822,8.85214286 C170.849642,8.85214286 171.367631,8.65157143 171.768527,8.2755 C172.161484,7.90521429 172.377809,7.39992857 172.377809,6.85221429 C172.377809,6.31414286 172.175376,5.82428571 171.798296,5.44821429 C171.395416,5.05285714 170.885366,4.84457143 170.317761,4.84457143 C169.758095,4.84457143 169.26789,5.03742857 168.880887,5.40771429 L168.880887,5.40771429 Z M170.361423,5.45207143 C171.155276,5.45207143 171.558156,5.73171429 171.558156,6.23314286 C171.558156,6.58028571 171.343816,6.85028571 170.96872,6.95828571 L171.583956,8.13857143 L170.746441,8.13857143 L170.228452,7.07207143 L170.006174,7.07207143 L170.006174,8.13857143 L169.248044,8.13857143 L169.248044,5.45207143 L170.361423,5.45207143 L170.361423,5.45207143 Z M170.006174,6.63621429 L170.278068,6.63621429 C170.609502,6.63621429 170.776211,6.52242857 170.776211,6.28521429 C170.776211,6.02678571 170.603548,5.91878571 170.238376,5.91878571 L170.008158,5.91878571 L170.006174,6.63621429 L170.006174,6.63621429 Z" id="Shape" fill="#ABCAA0" sketch:type="MSShapeGroup"></path>
            </g>
        </g>
    </g>
</svg>